<?xml version="1.0" encoding="utf-8"?>
<!-- Generator: Adobe Illustrator 16.0.0, SVG Export Plug-In . SVG Version: 6.00 Build 0)  -->
<!DOCTYPE svg PUBLIC "-//W3C//DTD SVG 1.1//EN" "http://www.w3.org/Graphics/SVG/1.1/DTD/svg11.dtd">
<svg version="1.1" id="Layer_1" xmlns="http://www.w3.org/2000/svg" xmlns:xlink="http://www.w3.org/1999/xlink" x="0px" y="0px"
	 width="221.138px" height="58px" viewBox="0 0 221.138 58" enable-background="new 0 0 221.138 58" xml:space="preserve">
<g>
	<g>
		<rect x="53.416" y="38.123" fill="#666666" width="2.225" height="7.508"/>
		<polygon fill="#B5B5B5" points="55.366,34.507 55.366,42.118 62.875,42.622 62.875,35.232 		"/>
		<polygon fill="#666666" points="55.366,45.631 62.875,45.631 62.875,42.622 55.366,42.118 		"/>
		<g>
			<rect x="32.899" y="19.156" fill-rule="evenodd" clip-rule="evenodd" fill="#E6E6E6" width="4.796" height="2.317"/>
			<path fill-rule="evenodd" clip-rule="evenodd" fill="#B5B5B5" d="M52.413,22.956c-0.442-0.408-1.054-0.93-1.046-1.744
				c-0.156-0.054,0.261-0.801,1.449-0.472c-0.165-0.659,0.667,0.338,0.452-0.275c-0.507-0.35-6.708-7.312-6.708-7.312L36.06,18.59
				c0,0-2.621-0.146-3.161-0.077v0.314c0,0,4.035,0.533,4.64,0.844c0.373,0.086-0.026,1.452-1.317,1.87
				c-0.252,0-3.294-0.078-3.294-0.078l-0.005,19.673l21.526,1.26V29.281l0.076-6.03C54.524,23.251,52.507,23.13,52.413,22.956z"/>
			<polygon fill-rule="evenodd" clip-rule="evenodd" fill="#666666" points="47.112,11.436 53.186,15.325 52.959,18.011 			"/>
			<polygon fill-rule="evenodd" clip-rule="evenodd" fill="#666666" points="43.695,12.059 35.685,13.229 34.713,14.53 
				33.435,14.546 33.435,17.815 44.048,12.112 			"/>
			<polygon fill="none" points="53.482,16.848 54.255,17.062 54.255,15.637 47.775,12.043 53.482,15.895 			"/>
			<polygon fill="#B3B3B3" points="9.771,23.13 9.771,25.494 10.848,25.102 10.453,25.246 10.453,23.773 11.513,23.387 
				11.513,24.858 11.877,24.727 11.877,23.254 12.938,22.868 12.938,24.339 12.898,24.354 14.122,23.908 14.122,22.436 
				15.182,22.049 15.182,23.522 14.176,23.889 15.546,23.39 15.546,21.916 16.607,21.529 16.607,23.003 15.547,23.39 18.581,22.283 
				17.886,22.537 17.886,21.063 18.946,20.677 18.946,22.15 20.041,21.752 19.311,22.018 19.311,20.544 20.371,20.158 
				20.371,21.632 21.365,21.27 21.365,19.796 22.425,19.408 22.425,20.883 22.159,20.98 22.789,20.751 22.789,19.276 23.85,18.891 
				23.85,20.363 23.529,20.481 26.267,19.483 25.954,19.597 25.954,18.123 27.014,17.736 27.014,19.211 29.083,18.458 
				29.083,16.981 30.144,16.596 30.144,18.071 30.13,18.076 30.507,17.939 30.507,16.463 31.569,16.076 31.569,17.552 
				31.501,17.577 32.922,17.059 32.922,14.502 			"/>
			<path fill-rule="evenodd" clip-rule="evenodd" fill="#666666" d="M55.352,22.774v0.654h-0.366v3.794h-0.537v-4.019
				C54.449,23.204,55.217,22.814,55.352,22.774z"/>
			<polygon fill-rule="evenodd" clip-rule="evenodd" fill="#B3B3B3" points="7.516,43.817 11.681,43.378 11.743,45.993 
				14.705,45.896 14.748,43.055 23.804,42.098 23.803,45.784 26.786,45.712 26.788,41.783 32.922,41.136 32.922,45.631 
				7.516,46.145 			"/>
			<polygon fill-rule="evenodd" clip-rule="evenodd" fill="#666666" points="54.449,41.992 32.922,41.136 32.922,45.631 
				54.449,45.631 			"/>
			<path fill-rule="evenodd" clip-rule="evenodd" fill="#030303" d="M52.962,21.55c0.696,0.149,2.337,0.566,2.373,0.566
				c0,0-0.245,0.876-0.909,0.986c-0.538,0.065-0.808-0.039-1.289-0.097c-0.756-0.152-1.504-0.643-1.504-1.745
				c0.029-0.329,0.315-0.47,0.622-0.446l3.992,0.878l-2.766-3.457v-1.552l1.168,0.291v-2.229c-0.036,0-7.179-4-7.179-4l-0.437,0.442
				l-0.963-0.408l-0.859,0.56v-0.873l-3.759,0.246v0.807l-8.531,1.049L8.824,22.23l0.162,0.747l0.367-0.129l0.068-0.484
				l23.501-9.335v1.089L9.556,22.84c-0.328,0.2-0.28,0.683-0.667,0.573c-0.499-0.142,0.166-0.842-0.515-0.829
				c-0.21,0.135-0.13,0.823,0,0.971c0.296,0.316,0.659,0.339,1.022,0.207v1.901l-4.029,2.643c-0.818,0.468-0.084,0.529,0.026,0.789
				c0.741,0.869,1.692,0.742,1.692,0.742v16.695l3.126-0.051l0.898-0.404l-3.594,0.067V29.758l25.407-8.143
				c2.965,0.29,4.357,0.246,4.982-1.807c0.163-0.175,0.718,0.079,0.625-0.327l-5.63-0.654v0.329l4.569,0.552
				c-0.461,1.501-1.264,2.009-4.545,1.422L7.085,29.565c-0.426,0.11-1.336-0.432-1.525-0.853c-0.137-0.058,1.379-0.72,1.379-0.72
				l25.809-8.84v-1.036L7.126,27.513l2.513-1.601l23.975-8.7v-2.577h1.234l0.913-1.261l7.79-1.151l-10.116,5.593l0.179,0.213
				l12.458-6.689l9.324,9.819l-1.022-0.266l-8.302-8.875l-11.492,6.302l-1.682-0.233v0.427l5.688,0.698l0.04-0.357l-3.168-0.409
				l10.613-5.554l7.158,7.751c-1.736-0.48-1.71,0.274-2.455,0.619c0,0,0.381,0.044,0.537,0.098
				c-0.007,0.813,0.394,1.315,0.859,1.647c0.37,0.278,1.831,0.472,2.39,0.335c0.538-0.162,0.902-0.595,1.046-1.11
				c0.149-0.199,0.425,0.274,0.431-0.29l-3.651-0.873C52.266,21.499,52.55,21.443,52.962,21.55z M11.513,24.858l-1.061,0.388v-1.473
				l1.061-0.387V24.858z M12.938,24.339l-1.061,0.388v-1.473l1.061-0.386V24.339z M15.182,23.522l-1.06,0.386v-1.473l1.06-0.387
				V23.522z M16.607,23.003l-1.061,0.387v-1.474l1.061-0.387V23.003z M18.946,22.15l-1.06,0.387v-1.474l1.06-0.387V22.15z
				 M20.371,21.632l-1.061,0.386v-1.474l1.061-0.386V21.632z M22.425,20.883l-1.06,0.387v-1.474l1.06-0.388V20.883z M23.85,20.363
				l-1.061,0.388v-1.475l1.061-0.386V20.363z M27.014,19.211l-1.06,0.386v-1.474l1.06-0.387V19.211z M30.144,18.071l-1.061,0.387
				v-1.477l1.061-0.386V18.071z M31.569,17.552l-1.062,0.388v-1.477l1.062-0.387V17.552z M32.922,17.059l-0.99,0.361v-1.813
				l-3.213,1.17v1.814l-1.341,0.487v-1.812l-1.788,0.651v1.812l-1.377,0.503v-1.813L21,19.59v1.812l-0.265,0.097v-1.812
				l-3.214,1.171v1.811l-0.55,0.201V21.06l-3.213,1.171v1.811l-0.457,0.166v-1.81l-3.213,1.17v1.811l-0.318,0.116V23.13
				l23.152-8.628V17.059z M44.245,11.823l-8.652,1.278l-0.922,1.306h-1.057v-1.396l11.169-1.479L44.245,11.823z M54.255,15.068
				v1.424l-0.773-0.213v-0.953l-5.707-3.852L54.255,15.068z M52.945,17.751L47.81,12.03l5.135,3.394V17.751z"/>
			<path fill-rule="evenodd" clip-rule="evenodd" d="M23.648,36.91v8.874l3.317-0.072v-9.356L23.648,36.91z M23.975,45.432v-8.225
				l2.664-0.445v8.596L23.975,45.432z"/>
			<polygon points="27.295,36.301 27.295,37.455 27.295,40.046 27.295,41.2 30.284,40.881 30.284,39.546 30.284,37.138 
				30.284,35.801 			"/>
			<polygon fill="#E6E6E6" points="28.626,40.761 27.621,40.867 27.621,36.597 28.626,36.43 			"/>
			<polygon fill="#E6E6E6" points="29.958,37.522 29.958,39.302 29.958,39.601 29.958,40.618 28.953,40.727 28.953,39.769 
				28.953,39.47 28.953,37.63 28.953,37.279 28.953,36.374 29.958,36.207 29.958,37.172 			"/>
			<polygon points="20.33,37.466 20.33,38.197 20.33,41.21 20.33,41.942 23.317,41.623 23.317,40.71 23.317,37.879 23.317,36.966 
							"/>
			<polygon fill="#E6E6E6" points="21.66,41.502 20.655,41.609 20.655,41.155 20.655,40.856 20.655,38.515 20.655,38.163 
				20.655,37.762 21.66,37.593 21.66,38.056 21.66,38.407 21.66,40.689 21.66,40.988 			"/>
			<polygon fill="#E6E6E6" points="22.992,38.265 22.992,40.467 22.992,40.766 22.992,41.36 21.986,41.468 21.986,40.933 
				21.986,40.635 21.986,38.372 21.986,38.021 21.986,37.539 22.992,37.371 22.992,37.914 			"/>
			<polygon points="15.211,38.321 15.211,38.743 15.211,42.066 15.211,42.488 18.199,42.17 18.199,41.566 18.199,38.425 
				18.199,37.822 			"/>
			<polygon fill="#E6E6E6" points="16.542,42.049 15.537,42.155 15.537,42.012 15.537,41.713 15.537,39.06 15.537,38.709 
				15.537,38.617 16.542,38.45 16.542,38.602 16.542,38.952 16.542,41.544 16.542,41.843 			"/>
			<polygon fill="#E6E6E6" points="17.873,38.811 17.873,41.322 17.873,41.621 17.873,41.907 16.868,42.015 16.868,41.788 
				16.868,41.491 16.868,38.918 16.868,38.566 16.868,38.396 17.873,38.227 17.873,38.46 			"/>
			<polygon points="8.245,39.485 8.245,43.231 11.233,42.911 11.233,42.731 11.233,39.167 11.233,38.986 			"/>
			<polygon fill="#E6E6E6" points="10.907,39.392 10.907,39.553 10.907,42.487 10.907,42.648 9.901,42.757 9.901,42.656 
				9.901,39.66 9.901,39.56 			"/>
			<polygon fill="#E6E6E6" points="9.576,39.614 9.576,39.695 9.576,42.71 9.576,42.79 8.57,42.897 8.57,42.878 8.57,39.802 
				8.57,39.782 			"/>
			<path fill-rule="evenodd" clip-rule="evenodd" d="M11.564,38.931v7.315l3.316-0.095v-7.774L11.564,38.931z M11.89,45.848v-6.62
				l2.665-0.446v7.015L11.89,45.848z"/>
			<g>
				<g>
					<polygon fill-rule="evenodd" clip-rule="evenodd" fill="#030303" points="25.618,26.488 25.618,30.674 30.284,29.403 
						30.284,25.219 					"/>
					<polygon fill-rule="evenodd" clip-rule="evenodd" fill="#E6E6E6" points="27.054,29.746 25.97,30.042 25.97,26.743 
						27.054,26.448 					"/>
					<polygon fill-rule="evenodd" clip-rule="evenodd" fill="#E6E6E6" points="28.495,29.354 27.41,29.649 27.41,26.352 
						28.495,26.056 					"/>
					<polygon fill-rule="evenodd" clip-rule="evenodd" fill="#E6E6E6" points="29.933,28.962 28.848,29.258 28.848,25.961 
						29.933,25.666 					"/>
					<polygon fill-rule="evenodd" clip-rule="evenodd" fill="#030303" points="16.538,28.959 16.538,33.145 21.205,31.874 
						21.205,27.689 					"/>
					<polygon fill-rule="evenodd" clip-rule="evenodd" fill="#E6E6E6" points="17.976,32.217 16.891,32.513 16.891,29.214 
						17.976,28.919 					"/>
					<polygon fill-rule="evenodd" clip-rule="evenodd" fill="#E6E6E6" points="19.417,31.825 18.332,32.119 18.332,28.822 
						19.417,28.526 					"/>
					<polygon fill-rule="evenodd" clip-rule="evenodd" fill="#E6E6E6" points="20.854,31.433 19.768,31.729 19.768,28.432 
						20.854,28.137 					"/>
					<polygon fill-rule="evenodd" clip-rule="evenodd" fill="#030303" points="8.054,31.268 8.054,35.453 12.721,34.184 
						12.721,29.999 					"/>
					<polygon fill-rule="evenodd" clip-rule="evenodd" fill="#E6E6E6" points="9.492,34.525 8.406,34.82 8.406,31.523 9.492,31.229 
											"/>
					<polygon fill-rule="evenodd" clip-rule="evenodd" fill="#E6E6E6" points="10.932,34.134 9.846,34.429 9.846,31.131 
						10.932,30.837 					"/>
					<polygon fill-rule="evenodd" clip-rule="evenodd" fill="#E6E6E6" points="12.369,33.742 11.284,34.037 11.284,30.74 
						12.369,30.444 					"/>
				</g>
				<polygon fill-rule="evenodd" clip-rule="evenodd" fill="#030303" points="25.618,28.47 25.618,32.654 30.284,31.738 
					30.284,27.554 				"/>
				<polygon fill-rule="evenodd" clip-rule="evenodd" fill="#E6E6E6" points="27.054,31.835 25.97,32.049 25.97,27.804 
					27.054,27.591 				"/>
				<polygon fill-rule="evenodd" clip-rule="evenodd" fill="#E6E6E6" points="28.495,31.553 27.41,31.767 27.41,27.521 
					28.495,27.309 				"/>
				<polygon fill-rule="evenodd" clip-rule="evenodd" fill="#E6E6E6" points="29.933,31.27 28.848,31.482 28.848,27.238 
					29.933,27.024 				"/>
				<polygon fill-rule="evenodd" clip-rule="evenodd" fill="#030303" points="16.538,30.253 16.538,34.438 21.205,33.522 
					21.205,29.337 				"/>
				<polygon fill-rule="evenodd" clip-rule="evenodd" fill="#E6E6E6" points="17.976,33.619 16.891,33.833 16.891,29.732 
					17.976,29.521 				"/>
				<polygon fill-rule="evenodd" clip-rule="evenodd" fill="#E6E6E6" points="19.417,33.337 18.332,33.55 18.332,29.45 
					19.417,29.236 				"/>
				<polygon fill-rule="evenodd" clip-rule="evenodd" fill="#E6E6E6" points="20.854,33.055 19.768,33.268 19.768,29.168 
					20.854,28.955 				"/>
				<polygon fill-rule="evenodd" clip-rule="evenodd" fill="#030303" points="8.054,31.921 8.054,36.105 12.721,35.188 
					12.721,31.004 				"/>
				<polygon fill-rule="evenodd" clip-rule="evenodd" fill="#E6E6E6" points="9.492,35.286 8.406,35.5 8.406,31.586 9.492,31.372 
									"/>
				<polygon fill-rule="evenodd" clip-rule="evenodd" fill="#E6E6E6" points="10.932,35.004 9.846,35.216 9.846,31.303 
					10.932,31.09 				"/>
				<polygon fill-rule="evenodd" clip-rule="evenodd" fill="#E6E6E6" points="12.369,34.721 11.284,34.935 11.284,31.021 
					12.369,30.809 				"/>
			</g>
			<polygon fill-rule="evenodd" clip-rule="evenodd" fill="#030303" points="14.88,46.515 14.88,46.077 11.567,46.092 
				11.567,46.531 10.848,46.768 10.848,47.259 14.271,47.339 14.271,46.774 11.978,46.799 11.978,46.54 			"/>
			<polygon fill-rule="evenodd" clip-rule="evenodd" fill="#030303" points="26.975,46.105 26.959,45.667 23.648,45.784 
				23.665,46.222 22.955,46.481 22.974,46.974 26.398,46.948 26.377,46.383 24.085,46.479 24.075,46.219 			"/>
			<g>
				<polygon fill="#FFFFFF" points="41.423,20.932 44.434,21.277 44.434,17.571 41.423,17.227 				"/>
				<polygon fill="#FFFFFF" points="45.476,21.378 48.486,21.724 48.486,18.019 45.476,17.673 				"/>
			</g>
			<polygon fill="#FFFFFF" points="38.862,35.232 35.851,35.065 35.851,39.452 38.862,39.619 			"/>
			<polygon fill="#FFFFFF" points="48.07,35.723 45.059,35.555 45.059,39.988 48.07,40.155 			"/>
			<polygon fill="#FFFFFF" points="52.123,35.928 49.111,35.761 49.111,40.214 52.123,40.38 			"/>
			<polygon fill="#FFFFFF" points="38.862,25.063 35.851,24.896 35.851,29.284 38.862,29.45 			"/>
			<polygon fill="#FFFFFF" points="48.07,25.554 45.059,25.387 45.059,29.819 48.07,29.986 			"/>
			<polygon fill="#FFFFFF" points="52.123,25.759 49.111,25.593 49.111,30.045 52.123,30.212 			"/>
			<polygon fill-rule="evenodd" clip-rule="evenodd" fill="#E6E6E6" points="26.639,45.357 23.975,45.432 23.975,37.207 
				26.639,38.406 			"/>
			<polygon fill-rule="evenodd" clip-rule="evenodd" fill="#E6E6E6" points="14.554,45.796 11.89,45.848 11.89,39.228 
				14.554,40.428 			"/>
		</g>
	</g>
	<g>
		<path d="M74.308,39.71h-0.562l0.043-0.164h3.336c0.657,0,1.118,0.12,1.383,0.358c0.265,0.239,0.397,0.593,0.397,1.06
			c0,0.225-0.045,0.451-0.134,0.678c-0.089,0.229-0.231,0.434-0.428,0.614c-0.196,0.182-0.445,0.329-0.748,0.445
			c-0.302,0.115-0.664,0.173-1.084,0.173h-1.297l-0.708,2.594h0.57l-0.043,0.163h-2.887l0.043-0.163h0.527L74.308,39.71z
			 M75.259,42.71h0.467c0.144,0,0.267-0.01,0.367-0.03c0.101-0.02,0.188-0.05,0.264-0.091c0.075-0.04,0.14-0.092,0.194-0.155
			s0.108-0.14,0.16-0.225c0.047-0.081,0.098-0.195,0.156-0.343c0.058-0.146,0.111-0.306,0.16-0.479
			c0.049-0.173,0.089-0.351,0.121-0.531c0.032-0.181,0.047-0.347,0.047-0.497c0-0.138-0.02-0.249-0.061-0.332
			c-0.041-0.084-0.095-0.148-0.164-0.194c-0.069-0.046-0.149-0.078-0.238-0.096s-0.183-0.026-0.281-0.026h-0.363L75.259,42.71z"/>
		<path d="M87.625,43.894h-1.832l-0.225,0.372c-0.116,0.195-0.19,0.341-0.225,0.436c-0.035,0.096-0.052,0.181-0.052,0.256
			c0,0.104,0.023,0.188,0.069,0.255c0.047,0.067,0.105,0.118,0.177,0.155c0.073,0.038,0.15,0.063,0.234,0.078
			c0.083,0.015,0.16,0.022,0.229,0.022l-0.043,0.163h-2.109l0.043-0.163c0.184,0,0.346-0.034,0.484-0.101
			c0.138-0.065,0.268-0.163,0.389-0.289c0.121-0.127,0.239-0.281,0.354-0.462c0.115-0.184,0.242-0.392,0.38-0.627l2.679-4.443h0.691
			l0.631,5.922h0.501l-0.043,0.163h-2.74l0.043-0.163h0.51L87.625,43.894z M85.897,43.729h1.72l-0.225-2.446h-0.017L85.897,43.729z
			 M87.668,38.483c0-0.121,0.023-0.236,0.069-0.346c0.047-0.109,0.11-0.204,0.19-0.285s0.175-0.144,0.285-0.191
			c0.109-0.045,0.225-0.068,0.346-0.068s0.236,0.023,0.346,0.068c0.109,0.048,0.205,0.11,0.285,0.191
			c0.081,0.081,0.144,0.176,0.191,0.285c0.045,0.109,0.069,0.225,0.069,0.346c0,0.12-0.023,0.236-0.069,0.346
			c-0.047,0.109-0.11,0.204-0.191,0.285c-0.08,0.081-0.175,0.145-0.285,0.189c-0.109,0.047-0.225,0.069-0.346,0.069
			s-0.236-0.022-0.346-0.069c-0.11-0.045-0.205-0.108-0.285-0.189s-0.144-0.176-0.19-0.285
			C87.691,38.72,87.668,38.604,87.668,38.483z M87.988,38.483c0,0.155,0.057,0.289,0.168,0.402c0.113,0.112,0.247,0.168,0.402,0.168
			s0.29-0.056,0.402-0.168c0.112-0.113,0.169-0.247,0.169-0.402s-0.057-0.29-0.169-0.402s-0.246-0.168-0.402-0.168
			s-0.29,0.056-0.402,0.168C88.044,38.193,87.988,38.328,87.988,38.483z"/>
		<path d="M105.85,43.168c0-0.444,0.08-0.888,0.242-1.332c0.162-0.442,0.402-0.844,0.722-1.2c0.32-0.357,0.718-0.648,1.193-0.874
			c0.476-0.224,1.027-0.336,1.655-0.336c0.392,0,0.748,0.063,1.072,0.194c0.322,0.129,0.599,0.31,0.83,0.54
			c0.23,0.23,0.408,0.505,0.536,0.82c0.127,0.316,0.19,0.66,0.19,1.028c0,0.496-0.09,0.969-0.272,1.418
			c-0.182,0.45-0.438,0.848-0.769,1.193c-0.331,0.346-0.726,0.621-1.184,0.825s-0.963,0.307-1.516,0.307
			c-0.364,0-0.708-0.059-1.033-0.173c-0.326-0.115-0.613-0.282-0.86-0.501c-0.248-0.22-0.444-0.49-0.588-0.812
			C105.921,43.942,105.85,43.577,105.85,43.168z M107.509,44.568c0,0.311,0.081,0.549,0.242,0.717
			c0.162,0.168,0.389,0.251,0.683,0.251c0.126,0,0.248-0.02,0.363-0.057s0.226-0.106,0.333-0.207
			c0.107-0.102,0.212-0.239,0.316-0.414c0.104-0.177,0.208-0.4,0.311-0.671c0.121-0.329,0.234-0.658,0.342-0.99
			c0.106-0.331,0.199-0.653,0.276-0.967c0.077-0.314,0.14-0.613,0.186-0.896c0.046-0.281,0.069-0.541,0.069-0.777
			c0-0.155-0.026-0.289-0.077-0.402c-0.052-0.111-0.12-0.207-0.203-0.285c-0.084-0.077-0.176-0.135-0.277-0.173
			c-0.101-0.037-0.2-0.056-0.298-0.056c-0.282,0-0.521,0.076-0.716,0.229c-0.197,0.152-0.358,0.362-0.484,0.627
			c-0.081,0.168-0.164,0.362-0.247,0.588c-0.084,0.225-0.165,0.462-0.242,0.712c-0.078,0.252-0.151,0.51-0.221,0.774
			c-0.069,0.266-0.129,0.521-0.181,0.766c-0.052,0.244-0.094,0.473-0.125,0.687C107.524,44.236,107.509,44.418,107.509,44.568z
			 M109.177,37.766c0.202,0,0.373,0.07,0.515,0.212c0.141,0.142,0.211,0.312,0.211,0.514c0,0.202-0.071,0.374-0.211,0.515
			c-0.142,0.142-0.313,0.212-0.515,0.212s-0.373-0.07-0.514-0.212c-0.142-0.141-0.212-0.312-0.212-0.515
			c0-0.201,0.071-0.372,0.212-0.514S108.975,37.766,109.177,37.766z M111.182,37.766c0.201,0,0.373,0.07,0.514,0.212
			c0.141,0.142,0.211,0.312,0.211,0.514c0,0.202-0.071,0.374-0.211,0.515c-0.142,0.142-0.313,0.212-0.514,0.212
			c-0.202,0-0.373-0.07-0.515-0.212c-0.142-0.141-0.211-0.312-0.211-0.515c0-0.201,0.07-0.372,0.211-0.514
			S110.98,37.766,111.182,37.766z"/>
		<path d="M119.811,39.71h-0.562l0.043-0.164h2.921l-0.043,0.164h-0.579l-1.582,5.758h0.7c0.294,0,0.581-0.041,0.86-0.122
			c0.279-0.08,0.539-0.196,0.777-0.347c0.239-0.148,0.454-0.333,0.645-0.553c0.19-0.219,0.345-0.466,0.466-0.743h0.19l-0.579,1.928
			h-5.419l0.043-0.163h0.527L119.811,39.71z"/>
		<path d="M133.15,43.894h-1.833l-0.224,0.372c-0.116,0.195-0.19,0.341-0.225,0.436c-0.035,0.096-0.051,0.181-0.051,0.256
			c0,0.104,0.022,0.188,0.068,0.255c0.047,0.067,0.105,0.118,0.177,0.155c0.073,0.038,0.15,0.063,0.234,0.078
			s0.16,0.022,0.229,0.022l-0.043,0.163h-2.108l0.043-0.163c0.184,0,0.345-0.034,0.483-0.101c0.138-0.065,0.268-0.163,0.389-0.289
			c0.121-0.127,0.239-0.281,0.354-0.462c0.116-0.184,0.242-0.392,0.38-0.627l2.679-4.443h0.691l0.631,5.922h0.501l-0.043,0.163
			h-2.739l0.043-0.163h0.509L133.15,43.894z M131.422,43.729h1.72l-0.225-2.446h-0.018L131.422,43.729z"/>
		<path d="M141.545,45.631l0.044-0.163c0.173,0,0.321-0.048,0.445-0.14s0.229-0.212,0.315-0.362s0.162-0.321,0.225-0.515
			s0.124-0.391,0.182-0.593l0.951-3.404l-0.338-0.744h-0.424l0.044-0.164h2.229l2.17,4.529h0.018l0.863-3.206
			c0.029-0.093,0.051-0.193,0.065-0.303c0.014-0.109,0.022-0.196,0.022-0.259c0-0.185-0.058-0.33-0.17-0.438
			c-0.112-0.106-0.275-0.16-0.488-0.16h-0.043l0.043-0.164h1.867l-0.043,0.164c-0.156,0-0.287,0.023-0.394,0.069
			c-0.106,0.047-0.196,0.113-0.268,0.199c-0.072,0.087-0.134,0.188-0.183,0.307c-0.048,0.119-0.093,0.246-0.133,0.385l-1.4,4.961
			h-0.924l-2.376-4.943l-0.83,2.981c-0.07,0.26-0.12,0.485-0.151,0.679c-0.032,0.192-0.048,0.345-0.048,0.454
			c0,0.241,0.07,0.413,0.211,0.514c0.143,0.101,0.322,0.152,0.541,0.152l-0.043,0.163H141.545z"/>
		<path d="M156.008,39.71h-0.561l0.043-0.164h3.008c0.42,0,0.797,0.043,1.127,0.126c0.332,0.083,0.611,0.218,0.84,0.401
			c0.227,0.186,0.4,0.425,0.518,0.723c0.119,0.296,0.178,0.657,0.178,1.084c0,0.6-0.1,1.131-0.299,1.595
			c-0.199,0.465-0.475,0.854-0.83,1.176c-0.354,0.319-0.773,0.563-1.258,0.729c-0.482,0.168-1.014,0.251-1.59,0.251h-3.336
			l0.043-0.163h0.527L156.008,39.71z M156.209,45.468h0.525c0.266,0,0.5-0.026,0.705-0.079c0.205-0.052,0.393-0.155,0.566-0.311
			c0.172-0.156,0.334-0.377,0.488-0.662c0.152-0.284,0.309-0.66,0.471-1.127c0.08-0.231,0.154-0.467,0.221-0.71
			c0.066-0.241,0.121-0.477,0.168-0.708c0.047-0.23,0.082-0.448,0.107-0.653c0.027-0.204,0.039-0.387,0.039-0.548
			c0-0.289-0.076-0.52-0.229-0.696c-0.152-0.175-0.396-0.264-0.73-0.264h-0.752L156.209,45.468z"/>
		<path d="M178.357,43.894h-1.832l-0.225,0.372c-0.115,0.195-0.191,0.341-0.225,0.436c-0.035,0.096-0.053,0.181-0.053,0.256
			c0,0.104,0.023,0.188,0.068,0.255c0.047,0.067,0.105,0.118,0.178,0.155c0.072,0.038,0.15,0.063,0.234,0.078
			s0.16,0.022,0.229,0.022l-0.043,0.163h-2.109l0.045-0.163c0.184,0,0.346-0.034,0.482-0.101c0.139-0.065,0.27-0.163,0.389-0.289
			c0.121-0.127,0.24-0.281,0.354-0.462c0.115-0.184,0.242-0.392,0.381-0.627l2.68-4.443h0.691l0.631,5.922h0.502l-0.043,0.163h-2.74
			l0.043-0.163h0.51L178.357,43.894z M176.629,43.729h1.721l-0.227-2.446h-0.016L176.629,43.729z"/>
		<path d="M188.697,39.71h-0.562l0.043-0.164h2.949c0.189,0,0.396,0.011,0.621,0.032c0.225,0.018,0.436,0.069,0.631,0.149
			c0.195,0.081,0.359,0.208,0.488,0.381c0.131,0.173,0.195,0.408,0.195,0.709c0,0.259-0.057,0.487-0.168,0.687
			c-0.113,0.199-0.268,0.369-0.459,0.51c-0.193,0.142-0.418,0.25-0.674,0.324c-0.258,0.075-0.529,0.115-0.818,0.122v0.017
			c0.23,0.018,0.445,0.059,0.645,0.126c0.199,0.065,0.371,0.152,0.52,0.263c0.146,0.109,0.262,0.243,0.346,0.401
			c0.082,0.159,0.125,0.342,0.125,0.549c0,0.202-0.043,0.409-0.125,0.624c-0.084,0.212-0.229,0.406-0.438,0.582
			c-0.207,0.175-0.488,0.321-0.842,0.437s-0.803,0.173-1.344,0.173h-3.293l0.043-0.163h0.527L188.697,39.71z M188.896,45.468
			c0.121,0,0.236-0.003,0.35-0.006c0.113-0.002,0.221-0.013,0.324-0.029c0.104-0.018,0.205-0.047,0.303-0.087
			c0.098-0.041,0.189-0.097,0.275-0.174c0.18-0.148,0.334-0.379,0.469-0.69c0.131-0.312,0.197-0.678,0.197-1.098
			c0-0.277-0.082-0.483-0.246-0.623c-0.164-0.138-0.371-0.207-0.617-0.207h-0.252L188.896,45.468z M189.742,42.391
			c0.238,0,0.441-0.024,0.609-0.07c0.17-0.046,0.322-0.135,0.455-0.267c0.07-0.07,0.139-0.166,0.211-0.29
			c0.072-0.125,0.137-0.26,0.191-0.407c0.055-0.146,0.1-0.3,0.137-0.462c0.037-0.161,0.057-0.32,0.057-0.476
			c0-0.276-0.059-0.463-0.176-0.561c-0.119-0.099-0.285-0.148-0.498-0.148h-0.25L189.742,42.391z"/>
	</g>
	<g>
		<path d="M55.76,12.858h-1.479l0.114-0.599h13.084l-1.024,7.145h-0.432c0-1.28-0.083-2.345-0.25-3.194s-0.421-1.521-0.762-2.015
			c-0.342-0.492-0.773-0.839-1.298-1.038c-0.523-0.199-1.148-0.299-1.877-0.299h-1.388l-1.935,9.756h1.456
			c0.395,0,0.77-0.041,1.126-0.126c0.356-0.083,0.695-0.241,1.013-0.472c0.318-0.23,0.615-0.566,0.888-1.007
			c0.272-0.44,0.53-1.027,0.773-1.763h0.5l-1.638,8.089h-0.523c0.061-0.419,0.091-0.86,0.091-1.321c0-0.379-0.038-0.735-0.113-1.07
			c-0.076-0.336-0.201-0.63-0.375-0.882s-0.398-0.457-0.671-0.614c-0.273-0.156-0.607-0.236-1.001-0.236h-1.639l-2.116,10.607h1.593
			c0.698,0,1.396-0.11,2.093-0.331c0.698-0.22,1.362-0.582,1.992-1.085c0.629-0.503,1.209-1.16,1.741-1.969
			c0.531-0.807,0.993-1.788,1.388-2.941h0.501l-1.593,6.924H50.072l0.113-0.598h1.388L55.76,12.858z"/>
		<path d="M71.237,12.858h-1.57l0.182-0.599h1.979c0.243,0,0.542-0.016,0.899-0.047s0.72-0.084,1.092-0.158
			c0.372-0.073,0.728-0.173,1.069-0.299s0.618-0.283,0.83-0.472l-2.776,14.698h0.342c0.333,0,0.633-0.126,0.899-0.378
			c0.265-0.252,0.512-0.756,0.739-1.511l0.569-1.795c0.349-1.132,0.754-1.887,1.217-2.265s0.929-0.567,1.399-0.567
			c0.531,0,0.99,0.236,1.376,0.709c0.387,0.472,0.581,1.106,0.581,1.904c0,0.754-0.167,1.357-0.5,1.809
			c-0.334,0.452-0.766,0.678-1.297,0.678c-0.501,0-0.918-0.209-1.252-0.63c-0.333-0.419-0.5-0.86-0.5-1.322
			c0-0.44,0.034-0.834,0.102-1.181c0.068-0.345,0.171-0.603,0.307-0.771v-0.063c-0.243,0.106-0.459,0.404-0.649,0.897
			c-0.189,0.494-0.375,1.038-0.558,1.637c-0.181,0.599-0.378,1.176-0.591,1.731c-0.213,0.556-0.463,0.938-0.751,1.149v0.062h0.182
			c0.606,0,1.106,0.109,1.501,0.33c0.395,0.221,0.709,0.535,0.944,0.944s0.398,0.913,0.49,1.511c0.09,0.598,0.136,1.273,0.136,2.03
			v0.911c0,0.357,0.038,0.642,0.113,0.851c0.076,0.21,0.197,0.314,0.364,0.314c0.106,0,0.22-0.088,0.342-0.267
			c0.121-0.179,0.239-0.383,0.353-0.614c0.114-0.23,0.216-0.461,0.307-0.691c0.09-0.232,0.151-0.399,0.182-0.504l0.387,0.282
			c-0.137,0.484-0.315,0.951-0.535,1.4c-0.22,0.452-0.478,0.846-0.774,1.182c-0.296,0.335-0.622,0.604-0.979,0.802
			c-0.356,0.199-0.747,0.299-1.172,0.299c-0.531,0-0.959-0.12-1.286-0.361s-0.584-0.557-0.773-0.944
			c-0.19-0.388-0.319-0.818-0.388-1.29c-0.068-0.473-0.102-0.939-0.102-1.401v-2.738c0-0.587-0.072-0.99-0.216-1.212
			c-0.145-0.22-0.299-0.33-0.467-0.33h-0.159l-1.593,7.837h-4.3L71.237,12.858z"/>
		<path d="M93.642,26.264c0,0.777-0.109,1.659-0.33,2.645c-0.219,0.986-0.599,1.921-1.138,2.802
			c-0.538,0.881-1.259,1.625-2.161,2.234c-0.903,0.608-2.029,0.912-3.379,0.912c-0.759,0-1.457-0.142-2.093-0.425
			c-0.638-0.282-1.187-0.708-1.65-1.274c-0.462-0.566-0.827-1.275-1.092-2.125c-0.266-0.849-0.399-1.841-0.399-2.974
			c0-0.86,0.122-1.795,0.365-2.801c0.242-1.008,0.637-1.94,1.183-2.801c0.546-0.861,1.255-1.574,2.127-2.141
			c0.873-0.566,1.938-0.851,3.197-0.851c0.789,0,1.51,0.142,2.162,0.426c0.652,0.283,1.218,0.707,1.695,1.274
			c0.478,0.566,0.85,1.274,1.115,2.125C93.51,24.14,93.642,25.131,93.642,26.264z M86.248,34.259c0.424,0,0.789-0.23,1.091-0.692
			c0.304-0.462,0.584-1.302,0.843-2.518l0.796-3.684c0.227-1.026,0.405-1.872,0.534-2.532c0.129-0.661,0.228-1.196,0.296-1.604
			c0.068-0.41,0.109-0.726,0.125-0.945s0.023-0.404,0.023-0.551c0-0.44-0.088-0.84-0.262-1.196c-0.175-0.356-0.52-0.523-1.036-0.503
			c-0.59,0.021-1.073,0.535-1.444,1.542s-0.748,2.57-1.126,4.688c-0.213,1.114-0.384,2.021-0.512,2.724
			c-0.129,0.703-0.227,1.274-0.296,1.715c-0.068,0.44-0.118,0.787-0.147,1.038c-0.031,0.253-0.045,0.484-0.045,0.693
			c0,0.482,0.071,0.907,0.216,1.274C85.447,34.076,85.761,34.259,86.248,34.259z"/>
		<path d="M96.945,20.852h-1.274l0.182-0.599h1.502c0.228,0,0.508-0.004,0.842-0.016c0.334-0.011,0.687-0.037,1.058-0.078
			c0.372-0.042,0.751-0.121,1.138-0.236c0.388-0.115,0.748-0.268,1.082-0.457l-0.911,5.005h0.046
			c0.228-0.587,0.504-1.18,0.831-1.778s0.694-1.133,1.104-1.604c0.41-0.473,0.853-0.861,1.331-1.165
			c0.479-0.304,0.982-0.457,1.514-0.457c0.319,0,0.63,0.064,0.933,0.189c0.303,0.126,0.572,0.315,0.808,0.566
			c0.235,0.252,0.421,0.566,0.558,0.944s0.205,0.818,0.205,1.321c0,0.65-0.107,1.459-0.319,2.424
			c-0.212,0.966-0.444,1.941-0.693,2.927c-0.251,0.987-0.479,1.894-0.684,2.724c-0.204,0.828-0.307,1.432-0.307,1.809
			c0,0.294,0.031,0.498,0.091,0.614c0.061,0.115,0.151,0.173,0.273,0.173c0.151,0,0.311-0.084,0.478-0.252
			c0.167-0.168,0.331-0.367,0.489-0.598c0.159-0.231,0.303-0.478,0.432-0.74c0.128-0.262,0.224-0.477,0.284-0.645l0.364,0.282
			c-0.379,1.113-0.906,1.999-1.582,2.66s-1.467,0.991-2.378,0.991c-0.713,0-1.293-0.256-1.74-0.771
			c-0.448-0.515-0.672-1.338-0.672-2.471c0-0.272,0.049-0.678,0.148-1.212c0.099-0.535,0.224-1.133,0.375-1.794
			c0.152-0.661,0.311-1.343,0.478-2.046c0.167-0.702,0.327-1.358,0.479-1.967c0.151-0.607,0.276-1.139,0.375-1.59
			c0.099-0.451,0.147-0.75,0.147-0.896c0-0.252-0.049-0.441-0.147-0.566c-0.099-0.126-0.217-0.189-0.353-0.189
			c-0.228,0-0.521,0.231-0.876,0.692c-0.356,0.462-0.724,1.055-1.104,1.778c-0.379,0.725-0.732,1.537-1.059,2.438
			c-0.326,0.903-0.58,1.795-0.762,2.676l-1.069,5.477H94.26L96.945,20.852z"/>
		<path d="M121.889,26.264c0,0.777-0.111,1.659-0.331,2.645c-0.22,0.986-0.599,1.921-1.138,2.802s-1.259,1.625-2.161,2.234
			c-0.903,0.608-2.03,0.912-3.38,0.912c-0.758,0-1.456-0.142-2.093-0.425c-0.638-0.282-1.188-0.708-1.65-1.274
			c-0.463-0.566-0.827-1.275-1.093-2.125c-0.265-0.849-0.398-1.841-0.398-2.974c0-0.86,0.122-1.795,0.364-2.801
			c0.242-1.008,0.637-1.94,1.184-2.801c0.545-0.861,1.254-1.574,2.127-2.141c0.872-0.566,1.938-0.851,3.197-0.851
			c0.789,0,1.509,0.142,2.162,0.426c0.652,0.283,1.218,0.707,1.695,1.274c0.478,0.566,0.85,1.274,1.115,2.125
			C121.756,24.14,121.889,25.131,121.889,26.264z M114.494,34.259c0.424,0,0.789-0.23,1.092-0.692
			c0.303-0.462,0.583-1.302,0.842-2.518l0.795-3.684c0.229-1.026,0.407-1.872,0.536-2.532c0.128-0.661,0.228-1.196,0.295-1.604
			c0.069-0.41,0.11-0.726,0.125-0.945c0.015-0.22,0.023-0.404,0.023-0.551c0-0.44-0.087-0.84-0.262-1.196
			c-0.175-0.356-0.52-0.523-1.036-0.503c-0.591,0.021-1.073,0.535-1.445,1.542c-0.372,1.007-0.748,2.57-1.126,4.688
			c-0.212,1.114-0.383,2.021-0.512,2.724c-0.129,0.703-0.227,1.274-0.296,1.715c-0.068,0.44-0.118,0.787-0.147,1.038
			c-0.031,0.253-0.046,0.484-0.046,0.693c0,0.482,0.072,0.907,0.216,1.274C113.693,34.076,114.008,34.259,114.494,34.259z"/>
		<path d="M125.192,20.852h-1.273l0.182-0.599h1.502c0.229,0,0.508-0.004,0.842-0.016c0.332-0.011,0.687-0.037,1.059-0.078
			c0.371-0.042,0.75-0.121,1.137-0.236c0.389-0.115,0.747-0.268,1.082-0.457l-0.889,4.564l0.047-0.032
			c0.211-0.587,0.462-1.153,0.75-1.7c0.288-0.544,0.614-1.027,0.979-1.446c0.364-0.421,0.766-0.756,1.206-1.008
			c0.44-0.251,0.917-0.378,1.433-0.378c0.684,0,1.241,0.217,1.672,0.646c0.434,0.431,0.65,1.148,0.65,2.155
			c0,0.315-0.008,0.604-0.023,0.866c-0.016,0.263-0.029,0.509-0.045,0.74h0.045c0.516-1.322,1.164-2.387,1.945-3.195
			c0.781-0.808,1.682-1.212,2.697-1.212c0.637,0,1.186,0.252,1.65,0.756c0.46,0.503,0.693,1.228,0.693,2.173
			c0,0.608-0.076,1.205-0.229,1.793c-0.043,0.188-0.121,0.493-0.226,0.912c-0.107,0.421-0.225,0.903-0.354,1.448
			c-0.129,0.546-0.262,1.112-0.396,1.7c-0.139,0.587-0.264,1.138-0.377,1.651c-0.115,0.515-0.208,0.966-0.285,1.354
			c-0.074,0.389-0.112,0.646-0.112,0.771c0,0.399,0.041,0.656,0.124,0.771c0.084,0.115,0.209,0.173,0.375,0.173
			c0.123,0,0.26-0.088,0.41-0.267c0.152-0.179,0.297-0.389,0.433-0.63c0.137-0.241,0.262-0.488,0.375-0.739
			c0.113-0.252,0.193-0.451,0.238-0.6l0.342,0.316c-0.379,1.153-0.898,2.077-1.558,2.77s-1.453,1.038-2.379,1.038
			c-0.682,0-1.239-0.283-1.672-0.85s-0.648-1.385-0.648-2.455c0-0.565,0.102-1.311,0.307-2.234c0.205-0.923,0.434-1.862,0.684-2.817
			c0.25-0.953,0.478-1.836,0.682-2.643c0.205-0.808,0.307-1.38,0.307-1.716c0-0.23-0.037-0.42-0.113-0.566s-0.205-0.221-0.386-0.221
			c-0.243,0-0.521,0.195-0.831,0.582c-0.311,0.389-0.626,0.888-0.944,1.495c-0.317,0.609-0.61,1.29-0.876,2.046
			c-0.266,0.755-0.475,1.501-0.625,2.234l-1.411,6.704h-4.142l2.252-11.33c0.046-0.229,0.076-0.446,0.092-0.646
			c0.015-0.199,0.021-0.351,0.021-0.456c0-0.168-0.033-0.315-0.102-0.44c-0.068-0.126-0.171-0.189-0.307-0.189
			c-0.197,0-0.44,0.2-0.729,0.599c-0.289,0.398-0.584,0.912-0.887,1.542c-0.305,0.629-0.588,1.321-0.854,2.077
			s-0.467,1.49-0.603,2.203l-1.321,6.641h-4.3L125.192,20.852z"/>
		<path d="M145.492,20.253h1.594c0.227,0,0.508-0.004,0.842-0.016c0.334-0.011,0.689-0.037,1.068-0.078
			c0.379-0.042,0.764-0.121,1.15-0.236s0.746-0.268,1.08-0.457l-2.502,12.307c-0.031,0.127-0.055,0.256-0.068,0.394
			c-0.016,0.136-0.023,0.258-0.023,0.362c0,0.42,0.107,0.629,0.318,0.629c0.182,0,0.41-0.167,0.684-0.504
			c0.273-0.335,0.568-0.87,0.887-1.604l0.389,0.314c-0.396,1.05-0.912,1.894-1.549,2.534c-0.637,0.639-1.389,0.959-2.254,0.959
			c-0.303,0-0.604-0.047-0.898-0.142c-0.295-0.094-0.557-0.257-0.783-0.488c-0.229-0.229-0.41-0.534-0.549-0.912
			c-0.135-0.378-0.203-0.85-0.203-1.415c0-0.357,0.053-0.855,0.16-1.496c0.105-0.64,0.242-1.4,0.408-2.282l1.48-7.27h-1.412
			L145.492,20.253z M147.791,15.092c0-0.798,0.197-1.469,0.592-2.015c0.393-0.546,0.879-0.818,1.457-0.818
			c0.576,0,1.062,0.272,1.455,0.818c0.395,0.546,0.592,1.217,0.592,2.015s-0.197,1.469-0.592,2.015
			c-0.393,0.545-0.879,0.818-1.455,0.818c-0.578,0-1.064-0.273-1.457-0.818C147.988,16.561,147.791,15.89,147.791,15.092z"/>
		<path d="M166.066,31.206c-0.377,1.113-0.906,1.999-1.58,2.66c-0.676,0.661-1.469,0.991-2.379,0.991
			c-0.713,0-1.293-0.256-1.74-0.771s-0.672-1.338-0.672-2.471c0-0.272,0.051-0.678,0.148-1.212c0.1-0.535,0.223-1.133,0.375-1.794
			s0.311-1.343,0.479-2.046c0.166-0.702,0.326-1.358,0.479-1.967c0.15-0.607,0.275-1.139,0.375-1.59
			c0.098-0.451,0.148-0.75,0.148-0.896c0-0.252-0.051-0.441-0.148-0.566c-0.1-0.126-0.217-0.189-0.354-0.189
			c-0.229,0-0.52,0.231-0.875,0.692c-0.357,0.462-0.725,1.055-1.104,1.778c-0.379,0.725-0.734,1.537-1.059,2.438
			c-0.326,0.903-0.58,1.795-0.762,2.676l-1.07,5.477h-4.301l4.211-21.559h-1.457l0.184-0.599h1.908c0.244,0,0.547-0.016,0.912-0.047
			c0.363-0.031,0.734-0.084,1.115-0.158c0.379-0.073,0.738-0.173,1.08-0.299s0.617-0.283,0.83-0.472l-2.412,12.778h0.047
			c0.195-0.503,0.457-1.022,0.783-1.559c0.326-0.535,0.691-1.027,1.094-1.479c0.4-0.451,0.842-0.824,1.32-1.118
			c0.477-0.293,0.98-0.44,1.512-0.44c0.318,0,0.629,0.064,0.934,0.189c0.303,0.126,0.572,0.315,0.807,0.566
			c0.234,0.252,0.422,0.566,0.559,0.944s0.205,0.818,0.205,1.321c0,0.65-0.107,1.459-0.32,2.424
			c-0.211,0.966-0.443,1.941-0.693,2.927c-0.25,0.987-0.477,1.894-0.684,2.724c-0.203,0.828-0.307,1.432-0.307,1.809
			c0,0.294,0.031,0.498,0.094,0.614c0.059,0.115,0.148,0.173,0.271,0.173c0.152,0,0.311-0.084,0.479-0.252
			c0.166-0.168,0.33-0.367,0.488-0.598c0.158-0.231,0.303-0.478,0.432-0.74c0.129-0.262,0.225-0.477,0.285-0.645L166.066,31.206z"/>
		<path d="M179.086,28.437c-0.135,0.671-0.25,1.237-0.34,1.698c-0.092,0.462-0.158,0.841-0.205,1.134
			c-0.047,0.294-0.08,0.53-0.102,0.708c-0.023,0.18-0.037,0.311-0.037,0.394c0,0.525,0.191,0.787,0.57,0.787
			c0.121,0,0.258-0.084,0.41-0.252c0.15-0.168,0.303-0.367,0.455-0.598c0.15-0.231,0.291-0.478,0.422-0.74
			c0.127-0.262,0.223-0.477,0.283-0.645l0.365,0.282c-0.381,1.113-0.908,1.999-1.582,2.66c-0.676,0.661-1.469,0.991-2.379,0.991
			c-0.773,0-1.369-0.246-1.787-0.739c-0.416-0.492-0.625-1.222-0.625-2.187v-0.567h-0.045c-0.227,0.482-0.504,0.938-0.83,1.369
			s-0.686,0.803-1.082,1.117c-0.395,0.315-0.811,0.562-1.25,0.74c-0.439,0.178-0.889,0.267-1.344,0.267
			c-0.697,0-1.27-0.288-1.717-0.865c-0.449-0.577-0.672-1.349-0.672-2.313c0-0.126,0.02-0.403,0.057-0.834
			c0.037-0.43,0.096-0.812,0.17-1.148l1.73-8.844h-1.273l0.18-0.599h1.504c0.227,0,0.508-0.004,0.84-0.016
			c0.334-0.011,0.688-0.037,1.059-0.078c0.373-0.042,0.752-0.121,1.139-0.236s0.748-0.268,1.082-0.457l-1.844,8.971
			c-0.139,0.671-0.25,1.237-0.342,1.698c-0.092,0.462-0.16,0.841-0.205,1.134c-0.045,0.294-0.078,0.53-0.102,0.708
			c-0.023,0.18-0.035,0.311-0.035,0.394c0,0.525,0.189,0.787,0.568,0.787c0.289,0,0.578-0.146,0.865-0.441
			c0.287-0.292,0.555-0.671,0.797-1.133c0.242-0.46,0.459-0.964,0.648-1.511c0.189-0.545,0.338-1.059,0.443-1.541l1.707-8.278h4.186
			L179.086,28.437z"/>
		<path d="M182.488,31.143c0-0.649,0.156-1.185,0.467-1.604s0.688-0.63,1.127-0.63c0.471,0,0.846,0.205,1.125,0.614
			c0.281,0.409,0.422,0.896,0.422,1.464c0,0.565-0.133,1.053-0.398,1.463c-0.266,0.409-0.596,0.614-0.988,0.614
			c-0.078,0-0.152,0-0.229,0s-0.152-0.021-0.227-0.063l-0.047,0.063c0.213,0.294,0.555,0.566,1.025,0.817
			c0.469,0.251,1.008,0.378,1.613,0.378c0.607,0,1.119-0.152,1.537-0.457c0.416-0.304,0.625-0.749,0.625-1.337
			c0-0.398-0.105-0.781-0.318-1.148s-0.482-0.729-0.809-1.086s-0.678-0.734-1.057-1.134c-0.379-0.397-0.732-0.818-1.059-1.259
			s-0.596-0.929-0.807-1.464c-0.213-0.534-0.32-1.126-0.32-1.777c0-0.693,0.109-1.354,0.33-1.983
			c0.221-0.629,0.555-1.181,1.002-1.652s1-0.844,1.662-1.117c0.658-0.272,1.43-0.397,2.309-0.378
			c2.518,0.064,3.777,1.187,3.777,3.367c0,0.651-0.141,1.156-0.422,1.512c-0.279,0.356-0.654,0.534-1.125,0.534
			c-0.426,0-0.773-0.183-1.047-0.55c-0.273-0.368-0.408-0.886-0.408-1.559c0-0.524,0.119-0.965,0.361-1.321s0.537-0.535,0.889-0.535
			c0.182,0,0.311,0.011,0.387,0.031v-0.062c-0.273-0.294-0.555-0.504-0.842-0.63c-0.289-0.126-0.592-0.188-0.91-0.188
			c-0.684,0-1.209,0.241-1.582,0.724c-0.371,0.482-0.559,1.07-0.559,1.763c0,0.504,0.107,0.944,0.32,1.322
			c0.211,0.377,0.473,0.734,0.785,1.07c0.311,0.335,0.648,0.666,1.012,0.99c0.365,0.326,0.701,0.677,1.014,1.056
			c0.311,0.376,0.572,0.802,0.783,1.274c0.213,0.472,0.32,1.033,0.32,1.684c0,0.839-0.145,1.563-0.434,2.171
			c-0.287,0.608-0.676,1.118-1.16,1.526c-0.484,0.41-1.051,0.715-1.693,0.913c-0.646,0.199-1.318,0.299-2.016,0.299
			c-0.729,0-1.365-0.1-1.91-0.299c-0.547-0.198-1.01-0.467-1.389-0.802c-0.379-0.336-0.664-0.729-0.854-1.182
			C182.584,32.125,182.488,31.646,182.488,31.143z"/>
		<path d="M204.451,31.71c-0.668,0.943-1.453,1.704-2.355,2.281c-0.9,0.577-1.84,0.865-2.811,0.865c-0.713,0-1.375-0.116-1.99-0.346
			c-0.615-0.23-1.148-0.592-1.604-1.086s-0.816-1.123-1.082-1.889c-0.264-0.766-0.398-1.683-0.398-2.754
			c0-1.404,0.205-2.68,0.615-3.824c0.41-1.143,0.955-2.125,1.637-2.942c0.684-0.818,1.469-1.447,2.357-1.889
			c0.887-0.44,1.809-0.661,2.764-0.661c0.471,0,0.951,0.075,1.445,0.221c0.492,0.147,0.943,0.383,1.354,0.708
			c0.41,0.326,0.742,0.745,1.002,1.259c0.256,0.516,0.387,1.148,0.387,1.905c0,0.88-0.156,1.625-0.467,2.234
			c-0.311,0.607-0.705,1.102-1.184,1.478c-0.477,0.379-1.006,0.652-1.58,0.819c-0.578,0.169-1.139,0.251-1.686,0.251
			c-0.5,0-0.939-0.015-1.32-0.046c-0.377-0.031-0.658-0.068-0.84-0.111l-0.273,1.292c-0.168,0.881-0.25,1.667-0.25,2.359
			c0,0.777,0.17,1.343,0.51,1.7c0.344,0.357,0.756,0.534,1.242,0.534c0.348,0,0.721-0.083,1.113-0.251
			c0.395-0.168,0.781-0.383,1.162-0.646c0.379-0.263,0.734-0.561,1.068-0.897c0.334-0.335,0.629-0.66,0.889-0.976L204.451,31.71z
			 M198.809,27.65c0.273,0.062,0.584,0.094,0.932,0.094c0.35,0,0.646-0.136,0.889-0.408s0.447-0.65,0.615-1.134
			c0.076-0.188,0.17-0.492,0.283-0.912s0.221-0.866,0.32-1.338c0.098-0.472,0.184-0.923,0.26-1.354
			c0.076-0.429,0.113-0.75,0.113-0.96c0-0.482-0.074-0.865-0.227-1.148s-0.402-0.425-0.75-0.425c-0.352,0-0.627,0.188-0.832,0.566
			s-0.359,0.829-0.467,1.354L198.809,27.65z"/>
		<path d="M207.719,20.253h1.57l0.887-4.406c0.82-0.315,1.635-0.682,2.447-1.102s1.588-0.934,2.332-1.542l-1.479,7.05h1.66
			l-0.135,0.599h-1.617l-2.07,10.071c-0.076,0.293-0.133,0.594-0.17,0.896c-0.039,0.306-0.057,0.499-0.057,0.583
			c0,0.146,0.033,0.278,0.102,0.393c0.068,0.115,0.156,0.173,0.262,0.173c0.182,0,0.354-0.078,0.512-0.235
			c0.158-0.158,0.314-0.347,0.467-0.566c0.152-0.221,0.291-0.451,0.422-0.692c0.129-0.241,0.238-0.446,0.328-0.614l0.342,0.409
			c-0.105,0.147-0.25,0.415-0.432,0.803c-0.184,0.389-0.43,0.787-0.74,1.196s-0.697,0.776-1.16,1.101
			c-0.465,0.326-1.029,0.488-1.695,0.488c-0.305,0-0.6-0.058-0.889-0.172c-0.287-0.116-0.543-0.285-0.771-0.504
			c-0.229-0.221-0.41-0.504-0.547-0.851c-0.137-0.346-0.205-0.75-0.205-1.212c0-0.229,0.018-0.514,0.057-0.85
			c0.039-0.335,0.088-0.681,0.148-1.038s0.125-0.713,0.193-1.069c0.068-0.358,0.133-0.683,0.193-0.978l1.502-7.332h-1.594
			L207.719,20.253z"/>
	</g>
</g>
</svg>
